<svg xmlns="http://www.w3.org/2000/svg" width="1000" height="1000" viewBox="0 0 1000 1000"><rect width="100%" height="100%" fill="#DDDDDD"/><path fill="#999999" d="M227.715 524.18h41.04v15.76h-60.14V437.27h19.1v86.91Zm84.13-58.22q8.1 0 14.73 2.62 6.64 2.63 11.36 7.46 4.73 4.83 7.28 11.79 2.56 6.95 2.56 15.54 0 8.67-2.56 15.62-2.55 6.96-7.28 11.86-4.72 4.9-11.36 7.53-6.63 2.63-14.73 2.63-8.16 0-14.84-2.63-6.67-2.63-11.39-7.53-4.72-4.9-7.32-11.86-2.59-6.95-2.59-15.62 0-8.59 2.59-15.54 2.6-6.96 7.32-11.79 4.72-4.83 11.39-7.46 6.68-2.62 14.84-2.62Zm0 61.55q9.09 0 13.46-6.1 4.36-6.11 4.36-17.89 0-11.79-4.36-17.97-4.37-6.17-13.46-6.17-9.23 0-13.67 6.21-4.43 6.21-4.43 17.93 0 11.71 4.43 17.85 4.44 6.14 13.67 6.14Zm87.83-6.39v-12.28q-7.6.36-12.78 1.32-5.18.95-8.31 2.44-3.12 1.5-4.47 3.48-1.35 1.99-1.35 4.33 0 4.62 2.73 6.61 2.74 1.99 7.14 1.99 5.4 0 9.34-1.96 3.94-1.95 7.7-5.93Zm-37.06-38.26-3.13-5.61q12.57-11.51 30.25-11.51 6.39 0 11.43 2.1 5.04 2.09 8.52 5.82 3.48 3.73 5.29 8.91t1.81 11.36v46.01h-7.95q-2.49 0-3.84-.75-1.34-.74-2.13-3.01l-1.56-5.26q-2.77 2.49-5.39 4.37-2.63 1.88-5.47 3.16-2.84 1.28-6.07 1.95-3.23.68-7.14.68-4.61 0-8.52-1.25-3.9-1.24-6.74-3.72-2.84-2.49-4.4-6.18-1.57-3.69-1.57-8.59 0-2.77.93-5.5.92-2.74 3.01-5.22 2.1-2.49 5.44-4.69 3.33-2.2 8.2-3.83 4.86-1.64 11.32-2.67t14.77-1.24v-4.26q0-7.31-3.12-10.83-3.13-3.51-9.02-3.51-4.26 0-7.07.99-2.8 1-4.93 2.24-2.13 1.24-3.87 2.24-1.74.99-3.87.99-1.85 0-3.12-.96-1.28-.96-2.06-2.23Zm116.37 35.5V485.7q-2.99-3.63-6.5-5.12-3.51-1.49-7.56-1.49-3.98 0-7.17 1.49-3.2 1.49-5.47 4.51-2.27 3.02-3.48 7.67t-1.21 10.97q0 6.39 1.03 10.83 1.03 4.43 2.95 7.24 1.92 2.8 4.69 4.05 2.77 1.24 6.17 1.24 5.47 0 9.3-2.27 3.84-2.28 7.25-6.46Zm0-83.93h17.53v105.51h-10.72q-3.48 0-4.4-3.2l-1.49-7.02q-4.4 5.04-10.12 8.16-5.71 3.13-13.31 3.13-5.96 0-10.93-2.49t-8.56-7.21q-3.59-4.72-5.54-11.68-1.95-6.95-1.95-15.9 0-8.09 2.2-15.05 2.2-6.96 6.32-12.07t9.87-7.99q5.75-2.88 12.92-2.88 6.11 0 10.44 1.92 4.33 1.92 7.74 5.18v-38.41Zm35.43 32.66h17.6v72.85h-17.6v-72.85Zm20.02-21.23q0 2.28-.93 4.26-.92 1.99-2.44 3.48-1.53 1.49-3.59 2.38-2.06.89-4.4.89-2.27 0-4.3-.89-2.02-.89-3.51-2.38-1.49-1.49-2.38-3.48-.89-1.98-.89-4.26 0-2.34.89-4.4.89-2.06 2.38-3.55 1.49-1.49 3.51-2.38 2.03-.88 4.3-.88 2.34 0 4.4.88 2.06.89 3.59 2.38 1.52 1.49 2.44 3.55.93 2.06.93 4.4Zm30.67 24.43 1.21 5.75q2.2-2.2 4.65-4.08t5.18-3.2q2.73-1.31 5.86-2.06 3.12-.74 6.81-.74 5.97 0 10.58 2.02 4.62 2.02 7.71 5.68 3.08 3.66 4.68 8.73 1.6 5.08 1.6 11.19v46.36h-17.54v-46.36q0-6.68-3.05-10.33-3.05-3.66-9.3-3.66-4.55 0-8.52 2.06-3.98 2.06-7.53 5.61v52.68h-17.53v-72.85h10.72q3.4 0 4.47 3.2Zm91.52 31.45q3.26 0 5.68-.89 2.41-.88 4.01-2.45 1.6-1.56 2.41-3.76.82-2.2.82-4.83 0-5.39-3.23-8.55-3.23-3.16-9.69-3.16-6.46 0-9.69 3.16-3.23 3.16-3.23 8.55 0 2.56.81 4.76.82 2.2 2.42 3.8 1.59 1.6 4.04 2.48 2.45.89 5.65.89Zm19.81 41.47q0-2.13-1.28-3.48t-3.48-2.1q-2.2-.74-5.15-1.1-2.94-.35-6.24-.53-3.31-.18-6.82-.32-3.52-.14-6.85-.57-2.91 1.63-4.72 3.84-1.81 2.2-1.81 5.11 0 1.92.95 3.58.96 1.67 3.06 2.88 2.09 1.21 5.43 1.88 3.34.68 8.16.68 4.9 0 8.45-.75 3.55-.75 5.86-2.06 2.31-1.31 3.37-3.12 1.07-1.81 1.07-3.94Zm-3.48-73.63h20.94v6.53q0 3.12-3.76 3.83l-6.53 1.21q1.49 3.76 1.49 8.24 0 5.39-2.17 9.76-2.16 4.37-6 7.42-3.83 3.05-9.05 4.72-5.22 1.67-11.25 1.67-2.13 0-4.12-.21-1.99-.22-3.9-.57-3.41 2.06-3.41 4.61 0 2.2 2.02 3.23 2.02 1.03 5.36 1.46 3.34.43 7.6.53 4.26.11 8.73.46 4.47.36 8.73 1.25 4.26.88 7.6 2.8t5.36 5.22q2.03 3.3 2.03 8.48 0 4.83-2.38 9.38-2.38 4.54-6.89 8.09t-11.08 5.72q-6.56 2.16-14.94 2.16-8.24 0-14.34-1.6-6.11-1.59-10.16-4.26-4.04-2.66-6.03-6.14-1.99-3.48-1.99-7.24 0-5.11 3.09-8.56 3.09-3.44 8.48-5.5-2.91-1.49-4.61-3.97-1.71-2.49-1.71-6.54 0-1.63.61-3.37.6-1.74 1.77-3.44 1.17-1.71 2.95-3.23 1.77-1.53 4.19-2.74-5.54-2.98-8.7-7.95-3.16-4.97-3.16-11.64 0-5.4 2.17-9.76 2.16-4.37 6.03-7.46t9.16-4.72q5.29-1.63 11.54-1.63 4.68 0 8.8.95 4.12.96 7.53 2.81Zm29.46 60.7q0-2.2.82-4.19.82-1.98 2.24-3.4 1.42-1.42 3.4-2.28 1.99-.85 4.26-.85 2.28 0 4.23.85 1.95.86 3.41 2.28 1.45 1.42 2.3 3.4.86 1.99.86 4.19 0 2.28-.86 4.23-.85 1.95-2.3 3.37-1.46 1.42-3.41 2.24-1.95.81-4.23.81-2.27 0-4.26-.81-1.98-.82-3.4-2.24-1.42-1.42-2.24-3.37-.82-1.95-.82-4.23Zm33.73 0q0-2.2.82-4.19.81-1.98 2.23-3.4t3.41-2.28q1.99-.85 4.26-.85 2.27 0 4.22.85 1.96.86 3.41 2.28 1.46 1.42 2.31 3.4.85 1.99.85 4.19 0 2.28-.85 4.23-.85 1.95-2.31 3.37-1.45 1.42-3.41 2.24-1.95.81-4.22.81-2.27 0-4.26-.81-1.99-.82-3.41-2.24-1.42-1.42-2.23-3.37-.82-1.95-.82-4.23Zm33.72 0q0-2.2.82-4.19.82-1.98 2.24-3.4 1.42-1.42 3.4-2.28 1.99-.85 4.26-.85 2.28 0 4.23.85 1.95.86 3.41 2.28 1.45 1.42 2.3 3.4.86 1.99.86 4.19 0 2.28-.86 4.23-.85 1.95-2.3 3.37-1.46 1.42-3.41 2.24-1.95.81-4.23.81-2.27 0-4.26-.81-1.98-.82-3.4-2.24-1.42-1.42-2.24-3.37-.82-1.95-.82-4.23Z"/></svg>